Coordinates
version=1
nRows=8
nColumns=40
inDegrees=yes

Units are S.I. units (second, meters, Newtons, ...)
Angles are in degrees.

endheader
time	pelvis_tilt	pelvis_list	pelvis_rotation	pelvis_tx	pelvis_ty	pelvis_tz	hip_flexion_r	hip_adduction_r	hip_rotation_r	knee_angle_r	knee_angle_r_beta	ankle_angle_r	subtalar_angle_r	mtp_angle_r	hip_flexion_l	hip_adduction_l	hip_rotation_l	knee_angle_l	knee_angle_l_beta	ankle_angle_l	subtalar_angle_l	mtp_angle_l	lumbar_extension	lumbar_bending	lumbar_rotation	arm_flex_r	arm_add_r	arm_rot_r	elbow_flex_r	pro_sup_r	wrist_flex_r	wrist_dev_r	arm_flex_l	arm_add_l	arm_rot_l	elbow_flex_l	pro_sup_l	wrist_flex_l	wrist_dev_l
     30.60000000	     -6.08034500	     -5.97059993	     -3.64856370	      1.01889020	      0.93646585	      0.43269984	     37.89631205	     -7.06914848	     -7.60081427	     55.17244579	     55.17244579	      0.95411486	    -10.50766121	     -0.75011549	     12.45596228	     -6.44697692	    -10.38333990	     18.83652262	     18.83652262	     14.01793185	     -6.37545673	     -0.00344556	    -13.44313674	      7.83200644	      2.43082337	     -2.18140240	    -15.21001002	     -7.37929524	     27.26284839	     47.08492704	      0.00000000	      0.00000000	      6.14759602	    -19.73465917	     -4.82657206	     76.93609307	     47.44797204	      0.00000000	      0.00000000
     30.61171429	     -6.00047292	     -5.92349441	     -3.79041888	      1.01754850	      0.93665204	      0.43287479	     38.18845435	     -6.89938229	     -7.71764947	     51.77602535	     51.77602535	      0.91224914	     -9.74242107	     -0.46578181	     11.54162391	     -6.35269053	    -10.69581728	     18.25724928	     18.25724928	     14.23218238	     -6.02050875	     -0.18857812	    -13.54392751	      7.74769183	      2.28181848	     -3.88603528	    -15.53400732	     -7.59324665	     26.14969737	     47.12540838	      0.00000000	      0.00000000	      7.44820969	    -20.26044254	     -4.96807784	     78.31883717	     47.49549891	      0.00000000	      0.00000000
     30.62342857	     -6.03454093	     -5.87409142	     -3.86549090	      1.01620286	      0.93649077	      0.43315059	     38.39822107	     -6.71995971	     -7.91869651	     48.06007745	     48.06007745	      0.76566462	     -8.95736531	     -0.03171455	     10.81448103	     -6.25850974	    -10.89041186	     17.76855399	     17.76855399	     14.46672622	     -5.72894909	     -0.37438491	    -13.44914792	      7.65331795	      1.81862485	     -5.47366011	    -15.79266214	     -7.75140897	     25.36796184	     47.15249866	      0.00000000	      0.00000000	      8.58348641	    -20.93689834	     -5.18494168	     79.36628226	     47.53765725	      0.00000000	      0.00000000
     30.63514286	     -5.88260900	     -5.77133362	     -3.93384749	      1.01519428	      0.93635500	      0.43351410	     38.14987593	     -6.56103739	     -8.12791358	     44.00347707	     44.00347707	      0.41965534	     -8.11284053	     -0.35514583	      9.73206722	     -6.10014238	    -11.31205116	     17.01997017	     17.01997017	     14.46801685	     -5.18386158	     -1.37312266	    -13.58683686	      7.49555445	      1.75425416	     -7.16118318	    -15.89226929	     -8.82504590	     24.47983901	     47.23294913	      0.00000000	      0.00000000	      9.71057671	    -21.77195891	     -4.53648608	     81.51348581	     47.57328402	      0.00000000	      0.00000000
     30.64685714	     -5.87872228	     -5.67127263	     -3.95434594	      1.01428131	      0.93588352	      0.43395412	     37.85800390	     -6.37599318	     -8.44711554	     39.76181338	     39.76181338	      0.24789545	     -7.12728353	      0.28719560	      8.86560229	     -5.92311865	    -11.47736229	     16.38218009	     16.38218009	     14.73341211	     -4.85263875	     -1.53538511	    -13.43816956	      7.36875146	      1.33190967	     -8.73615230	    -16.07166129	     -9.00037020	     23.99133906	     47.24837256	      0.00000000	      0.00000000	     10.83401606	    -22.24580206	     -4.88576969	     82.49154326	     47.62316714	      0.00000000	      0.00000000
     30.65857143	     -5.66337304	     -5.44059107	     -3.99558240	      1.01376199	      0.93544526	      0.43450536	     37.17724534	     -6.30550590	     -8.80866847	     35.45066904	     35.45066904	      0.12822101	     -5.78367029	      0.90149852	      7.60129398	     -5.58317976	    -11.84867666	     15.47526554	     15.47526554	     14.92671161	     -4.24572804	     -1.97141030	    -13.53945462	      7.04012499	      1.22353172	    -10.56593305	    -16.15339105	     -9.37332505	     23.85335524	     47.25603377	      0.00000000	      0.00000000	     12.02647344	    -22.64766205	     -5.03197582	     84.18330092	     47.67944870	      0.00000000	      0.00000000
     30.67028571	     -5.50073250	     -5.24217430	     -3.96839222	      1.01341973	      0.93468991	      0.43512455	     36.34834109	     -6.17612484	     -9.32962365	     31.08945588	     31.08945588	      0.00153799	     -4.47865542	      1.81802183	      6.44910296	     -5.28370377	    -12.11386864	     14.67447007	     14.67447007	     15.15598183	     -3.72756158	     -2.44653590	    -13.48741187	      6.76965074	      0.93177560	    -12.28304575	    -16.25038317	     -9.70876351	     23.89530367	     47.25497190	      0.00000000	      0.00000000	     13.02551434	    -23.12845218	     -5.12773605	     85.57848016	     47.72374285	      0.00000000	      0.00000000
     30.68200000	     -5.26361081	     -4.94595128	     -3.96645154	      1.01342325	      0.93372883	      0.43591789	     35.38306439	     -6.11860336	     -9.92606874	     26.99033896	     26.99033896	      0.01588586	     -2.85220632	      3.09150559	      5.09579034	     -4.85871320	    -12.45626217	     13.68210796	     13.68210796	     15.30434747	     -3.09732036	     -3.14527338	    -13.49231371	      6.33880885	      0.77979086	    -14.15452931	    -16.21615290	    -10.17186515	     24.35812839	     47.23926877	      0.00000000	      0.00000000	     14.06289764	    -23.60137634	     -5.11323182	     87.26777392	     47.77147130	      0.00000000	      0.00000000
